<?xml version="1.0" encoding="UTF-8"?>
<svg id="Capa_1" data-name="Capa 1" xmlns="http://www.w3.org/2000/svg" viewBox="0 0 24 24">
  <path d="M19.2,5.51c-.35-.7-.94-1.08-1.71-1.09-1.3-.01-2.63,0-3.91,0h-1.53s-.16-.15-.16-.15v.16h-1.15c-1.36,0-2.72,0-4.09,0-.16,0-.37,0-.57.05-.68.16-1.21.64-1.43,1.28-.22.66-.07,1.37.39,1.92,1.4,1.64,2.8,3.27,4.2,4.9.22.25.31.51.31.83,0,1.35,0,2.78,0,4.52,0,.6.27,1.11.74,1.4.25.15.52.23.81.23.26,0,.52-.06.77-.19.22-.11.45-.22.67-.33.28-.14.56-.28.84-.41.68-.32,1.01-.85,1-1.61,0-.65,0-1.31,0-1.96,0-.57,0-1.13,0-1.7,0-.29.08-.52.26-.73.72-.83,1.43-1.66,2.14-2.5l.46-.53c.17-.2.34-.39.51-.59.41-.47.83-.95,1.22-1.44.5-.62.57-1.34.21-2.07ZM12.93,15.25c0,.59,0,1.18,0,1.77,0,.16-.04.23-.18.29-.34.16-.67.33-1,.49-.15.08-.3.15-.46.23-.15.07-.19.05-.2.05,0,0-.05-.04-.05-.2v-1.14c0-1.07,0-2.17,0-3.26,0-.73-.22-1.36-.71-1.91-.88-1.01-1.74-2.02-2.61-3.04-.5-.59-1-1.17-1.5-1.75-.19-.22-.23-.4-.14-.6.09-.2.26-.29.56-.29h0c1.37,0,2.74,0,4.11,0h6.6c.26,0,.43.09.52.28.09.2.06.38-.12.58-.31.36-.62.73-.94,1.09l-1.04,1.22c-.75.88-1.5,1.75-2.25,2.63-.41.48-.61,1.03-.61,1.69,0,.62,0,1.24,0,1.87Z"/>
</svg>