<?xml version="1.0" encoding="UTF-8"?>
<svg id="Capa_1" data-name="Capa 1" xmlns="http://www.w3.org/2000/svg" viewBox="0 0 24 24">
  <path d="M15.6,16.38c.46,0,.85-.16,1.18-.49s.49-.72.49-1.18-.16-.85-.49-1.18-.72-.49-1.18-.49-.85.16-1.18.49-.49.72-.49,1.18.16.85.49,1.18.72.49,1.18.49ZM15.6,19.71c.59,0,1.13-.15,1.63-.44s.91-.69,1.21-1.17c-.43-.28-.88-.49-1.36-.65-.47-.15-.97-.23-1.48-.23s-1.01.08-1.48.23-.93.37-1.36.65c.31.49.71.88,1.21,1.17s1.04.44,1.63.44ZM11.17,20.82c-2.05-.46-3.76-1.62-5.14-3.48-1.38-1.86-2.07-3.92-2.07-6.2v-4.16c0-.35.1-.66.29-.94s.45-.48.77-.6l5.55-2.13c.2-.08.4-.12.6-.12s.4.04.6.12l5.55,2.13c.32.12.58.32.77.6s.29.59.29.94v3.97c-.34-.15-.64-.28-.9-.37s-.52-.15-.76-.18v-3.42l-5.55-2.13-5.55,2.13v4.16c0,.75.1,1.49.29,2.22.19.72.47,1.41.84,2.04s.82,1.22,1.35,1.76,1.13,1,1.79,1.4c.12.35.32.73.59,1.12s.57.76.89,1.1l-.1.02-.1.02ZM15.6,20.82c-1.23,0-2.27-.43-3.14-1.3-.86-.87-1.29-1.91-1.29-3.14s.43-2.27,1.3-3.14c.87-.86,1.91-1.29,3.14-1.29s2.27.43,3.14,1.3c.86.87,1.29,1.91,1.29,3.14s-.43,2.27-1.3,3.14c-.87.86-1.91,1.29-3.14,1.29Z"/>
</svg>