<?xml version="1.0" encoding="UTF-8"?>
<svg id="Capa_1" data-name="Capa 1" xmlns="http://www.w3.org/2000/svg" viewBox="0 0 24 24">
  <path d="M20.2,6.76c-2.68-1.29-5.35-2.58-8.03-3.87-.2-.1-.38-.1-.58,0-2.67,1.29-5.34,2.58-8.01,3.87-.24.12-.35.28-.35.55,0,3.14,0,6.27,0,9.41,0,.27.1.43.35.55,2.66,1.28,5.32,2.56,7.98,3.85.03.02.06.04.1.06l.24.16v-.1h.12l.08-.05s.06-.04.1-.06c2.66-1.28,5.32-2.57,7.98-3.85.24-.12.35-.29.35-.55,0-3.13,0-6.27,0-9.4,0-.26-.1-.43-.33-.54ZM12.27,11.51c0-.09.02-.12.11-.16.33-.16.66-.32.99-.48.21-.1.41-.2.62-.3.07-.03.27-.13.27-.38,0-.13-.06-.25-.17-.32-.06-.04-.14-.06-.22-.06-.07,0-.14.02-.2.05-.24.11-.48.23-.72.34l-.45.22c-.07.03-.14.07-.21.11-.15.09-.29.17-.41.17h0c-.12,0-.26-.08-.41-.16-.07-.04-.14-.08-.21-.11-.15-.07-.28-.08-.39-.04-.09.03-.16.1-.2.2-.1.22,0,.42.26.55.03.02.07.03.1.05.08.04.16.09.26.12.16.05.21.12.21.33,0,2.22,0,4.44,0,6.66v1.91s-7.42-3.58-7.42-3.58c-.06-.03-.06-.03-.06-.07,0-2.92,0-5.84,0-8.76,0,0,0,0,.01,0l5.52,2.67.05.02s.08.04.12.06c.21.08.41,0,.51-.18.1-.2.02-.42-.18-.53-.15-.08-.3-.15-.45-.22l-5.08-2.45.15-.07c.74-.36,1.46-.7,2.18-1.04.02,0,.07,0,.1.02,1.51.72,3.01,1.45,4.52,2.18l1.17.56c.67.33,1.35.65,2.02.97.08.04.1.06.1.15,0,.88,0,1.76,0,2.63v.28c0,.22.06.36.18.44.12.08.28.07.48-.03l.58-.28c.41-.2.81-.39,1.22-.58.22-.1.32-.26.32-.5,0-.58,0-1.15,0-1.73,0-.41,0-.82,0-1.23,0-.07,0-.08.05-.09.57-.27,1.15-.55,1.72-.82l.44-.21v1.08c0,2.54,0,5.08,0,7.62,0,.09-.01.1-.07.13-2.11,1.01-4.21,2.03-6.32,3.04l-1.08.52h0v-2.06c0-2.21,0-4.42,0-6.64ZM16.72,11.76c-.3.14-.6.28-.9.43l-.28.13h0s0-.7,0-.7c0-.57,0-1.14,0-1.71,0-.08.01-.1.09-.14.26-.12.51-.24.77-.37l.35-.17s0,0,0,0v2.43c0,.08,0,.08-.04.1ZM19.05,7.26c-.55.27-1.1.53-1.65.79-.04.02-.11.02-.13.01-2.24-1.08-4.48-2.16-6.72-3.24l-.58-.28.22-.11c.57-.27,1.12-.54,1.67-.8.01,0,.06,0,.1.02,1.86.89,3.72,1.79,5.57,2.69l1.7.82-.19.09ZM16.25,8.61c-.31.15-.61.29-.91.45-.14.07-.24.07-.39,0-2.02-.98-4.03-1.95-6.05-2.93l-1.09-.52.1-.05c.39-.19.77-.38,1.15-.55.02,0,.06,0,.1.03.99.48,1.98.96,2.98,1.43l4.28,2.07-.17.08Z"/>
</svg>