<?xml version="1.0" encoding="UTF-8"?>
<svg id="Capa_1" data-name="Capa 1" xmlns="http://www.w3.org/2000/svg" viewBox="0 0 24 24">
  <path d="M20.52,7.32c-1-.99-1.99-1.98-2.98-2.98l-1.93-1.93c-.06-.06-.13-.11-.2-.16-.03-.02-.06-.04-.11-.08l-7.59-.02h-.07s-.02.04-.02.04c-.94.28-1.37.86-1.37,1.85v15.94c0,1.11.72,1.83,1.84,1.83h10.86c1.11,0,1.83-.72,1.83-1.84v-3.02c0-3.02,0-6.03,0-9.05,0-.25-.08-.44-.25-.61ZM16.49,8.32h3.23v11.68c0,.52-.26.78-.78.78h-10.86c-.53,0-.79-.26-.79-.79V4.01c0-.52.26-.78.77-.78h6.55v3.22c0,1.16.72,1.88,1.87,1.88ZM16.71,7.27c-.12,0-.24,0-.36,0-.39-.01-.66-.27-.67-.62-.01-.69,0-1.39,0-2.08v-.51s3.21,3.21,3.21,3.21h-2.18Z"/>
  <path d="M16.69,15.34c-.09-.02-.18-.02-.28-.02h-2.76s-3.06,0-3.06,0c-.08,0-.17,0-.25.02-.25.05-.42.25-.42.49,0,.26.16.47.41.53.09.02.17.02.26.02.97,0,1.94,0,2.91,0s1.95,0,2.93,0c.08,0,.18,0,.27-.03.25-.06.41-.28.39-.53-.02-.25-.16-.42-.4-.48Z"/>
  <path d="M10.54,11.89c-.06,0-.13,0-.19,0-.24.04-.42.24-.44.49-.02.24.13.46.35.53.1.03.19.02.28.03h4.13c.23,0,.46,0,.69,0,.38,0,.77,0,1.15,0,.17,0,.32-.06.42-.16.09-.1.14-.22.14-.37,0-.31-.23-.52-.57-.52h-5.98Z"/>
  <path d="M16.75,13.64h0c-.09-.03-.19-.04-.3-.04-1.96,0-3.92,0-5.88,0-.11,0-.2.01-.28.03-.24.07-.39.29-.37.54.02.25.2.44.45.47.08.01.16.01.25.01h5.78c.09,0,.18,0,.27-.02.24-.04.41-.22.43-.46.02-.24-.12-.46-.34-.54Z"/>
  <path d="M14.51,17.03h0c-.48-.01-.97-.01-1.45,0h-1.05c-.52,0-1.03,0-1.55,0-.31,0-.54.21-.54.51-.01.29.21.52.53.55.02,0,.04,0,.06,0h3.96c.08,0,.18,0,.27-.03.18-.05.32-.2.36-.38.04-.16,0-.33-.12-.45-.11-.11-.29-.19-.46-.19Z"/>
</svg>